<svg xmlns="http://www.w3.org/2000/svg" width="976" height="284" viewBox="0 0 976 284" fill="none"><path d="M198.4 120.151C198.4 138.847 183.244 154.003 164.548 154.003C145.852 154.003 130.696 138.847 130.696 120.151C130.696 101.455 145.852 86.2994 164.548 86.2994C167.217 86.2994 169.814 86.6083 172.305 87.1923C169.837 89.5432 168.299 92.8615 168.299 96.539C168.299 103.667 174.077 109.445 181.205 109.445C186.461 109.445 190.983 106.304 192.996 101.796C196.415 107.084 198.4 113.385 198.4 120.151Z" fill="#33c5ff"></path><path fill-rule="evenodd" clip-rule="evenodd" d="M1.91556 71.0251L1.91501 71.032C0.782009 85.328 0 101.728 0 119.771C0 136.716 0.690013 152.214 1.71301 165.88C3.80101 193.784 4.84599 207.736 17.904 220.843C30.963 233.95 45.223 235.071 73.744 237.313C90.282 238.613 109.353 239.541 130.096 239.541C149.672 239.541 167.76 238.714 183.635 237.528C213.628 235.288 228.624 234.168 241.733 221.113C254.842 208.058 256.026 193.043 258.393 163.014C259.463 149.444 260.191 134.716 260.191 119.771C260.191 103.832 259.363 88.141 258.175 73.837C255.803 45.26 254.617 30.972 241.483 17.978C228.35 4.98407 214.367 3.97316 186.404 1.95149L186.397 1.95099C170.448 0.797989 151.629 0 130.096 0C107.313 0 87.569 0.893999 71.048 2.155C44.5 4.182 31.227 5.19601 18.147 18.238C5.06814 31.2789 4.01719 44.5287 1.91556 71.0251ZM225.848 120.151C225.848 154.005 198.403 181.45 164.549 181.45C130.695 181.45 103.25 154.005 103.25 120.151C103.25 86.2966 130.695 58.8521 164.549 58.8521C198.403 58.8521 225.848 86.2966 225.848 120.151ZM59.369 83.633C51.671 83.633 45.43 89.898 45.43 97.627V140.882C45.43 148.61 51.671 154.876 59.369 154.876C67.067 154.876 73.308 148.61 73.308 140.882V97.627C73.308 89.898 67.067 83.633 59.369 83.633Z" fill="#33c5ff"></path><path fill-rule="evenodd" clip-rule="evenodd" d="M89.768 253.232C82.5171 251.557 75.2751 256.067 73.5832 263.318C71.8889 270.579 76.4015 277.839 83.6623 279.533L86.73 266.386C83.6623 279.533 83.6647 279.533 83.6672 279.534L83.6841 279.538L83.7116 279.544L83.7838 279.561C83.8395 279.573 83.9104 279.589 83.9962 279.608C84.168 279.646 84.3997 279.696 84.6902 279.757C85.2711 279.878 86.0871 280.041 87.1281 280.231C89.2098 280.611 92.193 281.101 95.9961 281.585C103.6 282.553 114.497 283.5 128.031 283.5C141.549 283.5 153.295 282.555 161.682 281.608C165.883 281.133 169.26 280.657 171.617 280.293C172.796 280.11 173.722 279.956 174.369 279.845C174.693 279.789 174.947 279.744 175.129 279.711C175.22 279.694 175.293 279.681 175.347 279.671L175.415 279.658L175.451 279.651C175.451 279.651 175.455 279.651 172.945 266.386L175.455 279.651C182.781 278.265 187.596 271.202 186.21 263.876C184.824 256.554 177.768 251.74 170.446 253.119L170.445 253.12L170.441 253.12L170.435 253.121L170.432 253.122L170.319 253.143C170.209 253.163 170.027 253.195 169.778 253.238C169.28 253.324 168.512 253.452 167.497 253.609C165.466 253.922 162.454 254.349 158.653 254.778C151.036 255.638 140.325 256.5 128.031 256.5C115.752 256.5 105.999 255.64 99.4051 254.801C96.1096 254.382 93.6075 253.968 91.9785 253.67C91.1642 253.522 90.5686 253.402 90.2016 253.326C90.0182 253.287 89.892 253.26 89.8242 253.245L89.768 253.232Z" fill="#33c5ff"></path><path d="M366.632 45H331V221.471H366.632V45Z" fill="#33c5ff"></path><path d="M496.832 97.689H461.2V165.504C461.2 181.891 451.091 192.227 437.192 192.227C422.788 192.227 414.954 181.387 414.954 167.269V97.689H379.321V168.277C379.321 203.571 398.275 225 426.326 225C440.983 225 453.366 218.697 462.211 208.613V221.471H496.832V97.689Z" fill="#33c5ff"></path><path d="M509.617 221.471H545.25V154.16C545.25 136.008 554.35 126.933 566.73 126.933C579.62 126.933 587.96 136.008 587.96 150.882V221.471H623.34V151.387C623.34 135 633.95 126.933 645.83 126.933C658.46 126.933 666.3 136.261 666.3 150.882V221.471H701.68V142.815C701.68 113.067 683.48 94.16 655.94 94.16C638.75 94.16 624.1 100.966 614.75 112.311C607.16 101.218 595.29 94.16 580.88 94.16C570.02 94.16 555.86 98.193 545.75 109.538V97.689H509.617V221.471Z" fill="#33c5ff"></path><path d="M774.32 225C807.42 225 829.92 205.588 835.73 181.639H800.6C798.07 189.454 788.22 195.504 776.59 195.504C761.18 195.504 748.29 185.672 745 168.782H836.23C836.99 163.487 837.24 158.445 837.24 154.664C837.24 120.882 810.96 94.16 775.83 94.16C740.46 94.16 710.38 123.403 710.38 160.714C710.38 197.269 737.68 225 774.32 225ZM747.03 143.571C751.83 130.462 762.69 122.899 775.83 122.899C789.73 122.899 800.1 132.227 801.11 143.571H747.03Z" fill="#33c5ff"></path><path d="M909.62 225C946.27 225 975.58 196.26 975.58 159.454C975.58 122.899 946.27 94.16 909.62 94.16C872.73 94.16 843.67 122.899 843.67 159.454C843.67 196.26 872.73 225 909.62 225ZM878.29 159.454C878.29 140.798 891.68 126.933 909.62 126.933C927.31 126.933 940.71 140.798 940.71 159.454C940.71 178.109 927.31 192.227 909.62 192.227C891.68 192.227 878.29 178.109 878.29 159.454Z" fill="#33c5ff"></path></svg>